Coordinates
version=1
nRows=23
nColumns=23
inDegrees=yes

Units are S.I. units (second, meters, Newtons, ...)
If the header above contains a line with 'inDegrees', this indicates whether rotational values are in degrees (yes) or radians (no).

endheader
time	pelvis_tilt	pelvis_list	pelvis_rotation	pelvis_tx	pelvis_ty	pelvis_tz	hip_flexion_r	hip_adduction_r	hip_rotation_r	knee_angle_r	knee_angle_r_beta	ankle_angle_r	subtalar_angle_r	mtp_angle_r	hip_flexion_l	hip_adduction_l	hip_rotation_l	knee_angle_l	knee_angle_l_beta	ankle_angle_l	subtalar_angle_l	mtp_angle_l
     15.00000000	     -2.70078753	     -3.26994340	      1.12567953	      2.42108555	      1.03806895	      0.96586207	      3.47324806	      4.32385303	    -12.62701287	     33.99426530	      0.59331186	     23.07900127	     -0.40872473	      0.00000000	     28.01631549	     -1.97692626	      7.20283806	    101.21874948	      1.76660044	      1.42018100	     -9.88485512	      0.00000000
     15.00666667	     -3.17438790	     -2.46510245	      1.37624705	      2.42245338	      1.04243149	      0.96567895	      1.93992189	      3.41654144	    -13.25677363	     32.59741557	      0.56893223	     20.91239857	      0.16215612	      0.00000000	     29.57574898	     -0.93382083	      6.89951074	     99.47661341	      1.73619443	      1.95546426	     -9.56714487	      0.00000000
     15.01333333	     -2.87369932	     -1.82222624	      2.18191558	      2.42467938	      1.04803046	      0.96461742	     -0.66290890	      2.68788031	    -14.71736915	     30.72530979	      0.53625782	     18.36329789	      1.02083202	      0.00000000	     30.12316005	      0.21361163	      7.09512896	     97.44436386	      1.70072499	      2.53173769	     -9.41873410	      0.00000000
     15.02000000	     -2.87465773	     -1.20738458	      2.59627403	      2.42672959	      1.05340009	      0.96414130	     -2.76895369	      2.03592572	    -15.79331338	     29.03883632	      0.50682330	     15.30330760	      1.82428701	      0.00000000	     30.87286727	      1.05942347	      6.87935985	     95.23422866	      1.66215085	      3.08344880	     -9.29436724	      0.00000000
     15.02666667	     -3.09304558	     -0.68168114	      3.03182276	      2.42882756	      1.05855878	      0.96352610	     -4.54268199	      1.47971481	    -16.93302138	     27.43450115	      0.47882237	     11.83514853	      2.40323142	      0.00000000	     31.76645233	      1.83057950	      6.68530579	     92.87290103	      1.62093791	      3.63185355	     -9.23456957	      0.00000000
     15.03333333	     -3.27406533	     -0.28739371	      3.38268283	      2.43096143	      1.06381021	      0.96302646	     -6.26760121	      1.09949379	    -17.93457720	     25.84613723	      0.45110019	      8.02258113	      2.91184399	      0.00000000	     32.50357540	      2.35867977	      6.40499556	     90.33585368	      1.57665808	      4.14222744	     -9.20564032	      0.00000000
     15.04000000	     -3.82630946	      0.01661114	      3.74286504	      2.43301514	      1.06845541	      0.96236204	     -7.41076590	      0.72831088	    -19.06477313	     24.54112213	      0.42832338	      4.05058251	      3.35129600	      0.00000000	     33.57651968	      2.83687098	      6.14672917	     87.69672906	      1.53059667	      4.65411306	     -9.16225048	      0.00000000
     15.04666667	     -4.45767159	      0.16990508	      3.90640058	      2.43499097	      1.07293681	      0.96191114	     -8.27714471	      0.46961177	    -19.91464081	     23.47411278	      0.40970056	      0.10444979	      3.90778577	      0.00000000	     34.62807702	      3.01597207	      5.73801410	     84.89126611	      1.48163210	      5.13569007	     -9.15038034	      0.00000000
     15.05333333	     -4.29829326	      0.07197787	      4.41099948	      2.43743637	      1.07832485	      0.96120533	    -10.22104175	      0.86288497	    -20.37782049	     21.68305410	      0.37844069	     -4.18007876	      3.28321057	      0.00000000	     34.68019584	      3.07196556	      5.76958128	     81.89520220	      1.42934092	      5.61140093	     -9.17502985	      0.00000000
     15.06000000	     -4.70948788	     -0.05400652	      4.74398080	      2.43946857	      1.08262829	      0.96049919	    -11.18374896	      1.03687918	    -20.90569027	     20.62854136	      0.36003597	     -8.02049992	      2.98913171	      0.00000000	     35.29739373	      3.07275324	      5.63964576	     78.80429918	      1.37539449	      6.02254664	     -9.09808987	      0.00000000
     15.06666667	     -5.56145130	     -0.16890286	      4.89516521	      2.44142072	      1.08603089	      0.96001665	    -11.38646544	      0.94481900	    -21.63881021	     20.22183297	      0.35293757	    -10.89826076	      3.26112034	      0.00000000	     36.29857260	      2.92642697	      5.21104278	     75.58650872	      1.31923345	      6.51571113	     -8.92849739	      0.00000000
     15.07333333	     -5.66378699	     -0.38219996	      5.52693594	      2.44340640	      1.08993369	      0.95894051	    -12.54502347	      1.34036168	    -22.09746980	     19.33847608	      0.33752008	    -14.23065110	      1.89200475	      0.00000000	     36.37873447	      3.03996978	      5.41075997	     72.17955796	      1.25977094	      6.83523683	     -8.70358765	      0.00000000
     15.08000000	     -6.11684796	     -0.56936858	      5.95675186	      2.44507925	      1.09291630	      0.95807963	    -12.99840253	      1.45395835	    -22.69559920	     19.21017890	      0.33528087	    -16.51981556	      0.92150279	      0.00000000	     36.75020740	      3.05661138	      5.34876371	     68.63972608	      1.19798922	      7.20267394	     -8.31718184	      0.00000000
     15.08666667	     -6.68322966	     -0.67514759	      6.36394317	      2.44658351	      1.09527303	      0.95723146	    -13.14194536	      1.36132866	    -23.44934902	     19.56916971	      0.34154644	    -18.01084056	      0.14212541	      0.00000000	     37.12691883	      3.15058407	      5.20102503	     64.93438960	      1.13331890	      7.51832184	     -7.66043980	      0.00000000
     15.09333333	     -7.07990736	     -0.69608959	      6.86957607	      2.44786960	      1.09734982	      0.95621280	    -13.36485104	      1.21014353	    -24.13192945	     20.18600983	      0.35231233	    -18.93705550	     -1.26330855	      0.00000000	     37.18712935	      3.42128550	      5.16212072	     61.03343840	      1.06523445	      7.82034462	     -6.87775387	      0.00000000
     15.10000000	     -7.36670412	     -0.66736243	      7.31913624	      2.44892991	      1.09913040	      0.95532850	    -13.60213453	      1.03831207	    -24.48569923	     21.00304383	      0.36657227	    -19.40871958	     -3.18157844	      0.00000000	     36.99451317	      3.69847446	      5.07436314	     56.94551286	      0.99388669	      8.08262300	     -6.01254417	      0.00000000
     15.10666667	     -7.70308294	     -0.57123496	      7.89385377	      2.44981358	      1.10032285	      0.95426911	    -13.67322122	      0.74482421	    -25.04236892	     22.18657339	      0.38722876	    -19.27848221	     -4.92471367	      0.00000000	     36.72758407	      4.15736281	      5.11779274	     52.70297705	      0.91984048	      8.35796678	     -4.73915937	      0.00000000
     15.11333333	     -7.94183922	     -0.37857493	      8.42907131	      2.45047525	      1.10116811	      0.95321913	    -13.73805412	      0.32560227	    -25.45623184	     23.65389182	      0.41283829	    -18.81447150	     -6.88263140	      0.00000000	     36.21193217	      4.67596785	      5.10916368	     48.30015328	      0.84299670	      8.66540810	     -3.31919059	      0.00000000
     15.12000000	     -8.10337218	     -0.07783811	      8.89956384	      2.45100746	      1.10172567	      0.95223910	    -13.79654111	     -0.22257452	    -25.69568851	     25.34883641	      0.44242066	    -18.18520064	     -8.93186741	      0.00000000	     35.44980865	      5.25000633	      5.03476533	     43.74213752	      0.76344432	      9.01550814	     -1.69985582	      0.00000000
     15.12666667	     -8.18521712	      0.19787199	      9.41863495	      2.45136888	      1.10190661	      0.95116522	    -13.84865148	     -0.72400596	    -25.82807982	     27.23527683	      0.47534525	    -17.30267172	    -10.98510498	      0.00000000	     34.49849464	      5.86012992	      5.15151302	     39.13762417	      0.68308040	      9.44945646	      0.07484729	      0.00000000
     15.13333333	     -8.01482177	      0.67954414	      9.72874069	      2.45168844	      1.10200913	      0.95034581	    -14.07944310	     -1.47451877	    -25.75645891	     29.36178338	      0.51245979	    -16.58781902	    -12.98848658	      0.00000000	     33.10983685	      6.47129013	      4.97670969	     34.44619566	      0.60119953	      9.85966750	      2.06130982	      0.00000000
     15.14000000	     -7.83155923	      1.11953909	     10.11287079	      2.45191015	      1.10156937	      0.94938797	    -14.23540032	     -2.17748269	    -25.68285383	     31.67849892	      0.55289411	    -15.87335044	    -14.97988106	      0.00000000	     31.64735799	      7.16161486	      5.17736044	     29.87141807	      0.52135460	     10.36298465	      3.86147623	      0.00000000
     15.14666667	     -7.35716674	      1.58496466	     10.36832022	      2.45202725	      1.10101008	      0.94861048	    -14.58841945	     -2.87639469	    -25.39929917	     34.16697393	      0.59632619	    -15.24570578	    -16.81728810	      0.00000000	     29.80893577	      7.79666040	      5.52106210	     25.42751062	      0.44379378	     10.76431661	      5.42621325	      0.00000000
